<svg id='object' width="72" height="72" viewBox="0 0 72 72" fill="none" xmlns="http://www.w3.org/2000/svg">
<path stroke-linejoin="round" d="M21.5 11V71" stroke="white"/>
<path stroke-linejoin="round" d="M41 11V71" stroke="white"/>
<path stroke-linejoin="round" d="M1 31L21 31" stroke="white"/>
<path stroke-linejoin="round" d="M21 31L41 31" stroke="white"/>
<path stroke-linejoin="round" d="M41 31L61 31" stroke="white"/>
<path stroke-linejoin="round" d="M1 51H21" stroke="white"/>
<path stroke-linejoin="round" d="M21 51H41" stroke="white"/>
<path stroke-linejoin="round" d="M41 51H61" stroke="white"/>
<path stroke-linejoin="round" d="M21 11L41 11" stroke="white"/>
<path stroke-linejoin="round" d="M21 71H41" stroke="white"/>
<path stroke-linejoin="round" d="M1 31V51" stroke="white"/>
<path stroke-linejoin="round" d="M61 31V51" stroke="white"/>
<path stroke-linejoin="round" d="M61 51L71 41" stroke="white"/>
<path stroke-linejoin="round" d="M61 31L71 21" stroke="white"/>
<path stroke-linejoin="round" d="M41 31L51 21" stroke="white"/>
<path stroke-linejoin="round" d="M41 11L51 1" stroke="white"/>
<path stroke-linejoin="round" d="M21 11L31 1" stroke="white"/>
<path stroke-linejoin="round" d="M1 31L11 21" stroke="white"/>
<path stroke-linejoin="round" d="M41 71L51 61" stroke="white"/>
<path stroke-linejoin="round" d="M11 21H21" stroke="white"/>
<path stroke-linejoin="round" d="M51 61V51" stroke="white"/>
<path stroke-linejoin="round" d="M71 21V41" stroke="white"/>
<path stroke-linejoin="round" d="M51 1V21" stroke="white"/>
<path stroke-linejoin="round" d="M31 1L51 1" stroke="white"/>
<path stroke-linejoin="round" d="M51 21H71" stroke="white"/>
</svg>
