<svg id='react-icon' viewBox="0 0 200 200" xmlns="http://www.w3.org/2000/svg">
    <path d="M199 102C199 105.657 196.525 109.342 191.563 112.862C186.627 116.363 179.42 119.557 170.423 122.255C152.444 127.649 127.545 131 100 131C72.455 131 47.5564 127.649 29.5767 122.255C20.5804 119.557 13.373 116.363 8.43703 112.862C3.47503 109.342 1 105.657 1 102C1 98.3427 3.47503 94.6578 8.43703 91.1383C13.373 87.6373 20.5804 84.4435 29.5767 81.7446C47.5564 76.3507 72.455 73 100 73C127.545 73 152.444 76.3507 170.423 81.7446C179.42 84.4435 186.627 87.6373 191.563 91.1383C196.525 94.6578 199 98.3427 199 102Z"/>
    <path d="M149.481 15.866C152.648 17.6947 154.602 21.6806 155.169 27.7375C155.733 33.7628 154.895 41.6014 152.734 50.7418C148.416 69.0097 138.868 92.2479 125.095 116.103C111.323 139.957 95.9719 159.845 82.3108 172.719C75.4754 179.16 69.1058 183.805 63.6058 186.329C58.0769 188.867 53.6481 189.168 50.4808 187.339C47.3134 185.51 45.3597 181.524 44.7928 175.468C44.2288 169.442 45.0666 161.604 47.2274 152.463C51.546 134.195 61.0935 110.957 74.866 87.1025C88.6385 63.2479 103.99 43.3604 117.651 30.4865C124.486 24.0449 130.856 19.4 136.356 16.8758C141.885 14.3383 146.313 14.0374 149.481 15.866Z" />
    <path d="M149.481 187.339C146.313 189.168 141.885 188.867 136.356 186.329C130.856 183.805 124.486 179.16 117.651 172.719C103.99 159.845 88.6385 139.957 74.866 116.103C61.0935 92.2479 51.546 69.0097 47.2274 50.7418C45.0666 41.6014 44.2288 33.7628 44.7928 27.7375C45.3597 21.6806 47.3134 17.6947 50.4808 15.866C53.6481 14.0374 58.0769 14.3383 63.6058 16.8758C69.1058 19.4 75.4754 24.0449 82.3108 30.4865C95.9719 43.3604 111.323 63.2479 125.095 87.1025C138.868 110.957 148.416 134.195 152.734 152.463C154.895 161.604 155.733 169.442 155.169 175.468C154.602 181.524 152.648 185.51 149.481 187.339Z" />
    <circle cx="100.5" cy="102.5" r="12"/>
</svg>

