<svg id='sheet' version="1.0" xmlns="http://www.w3.org/2000/svg" viewBox="0 0 1146.000000 1280.000000"
 preserveAspectRatio="xMidYMid meet">
<g transform="translate(0.000000,1280.000000) scale(0.100000,-0.100000)">
<path d="M10533 12736 c-133 -33 -244 -64 -247 -67 -5 -5 26 -177 49 -274 2
-12 23 -30 49 -42 55 -27 77 -59 78 -110 1 -79 -51 -133 -127 -133 -72 0 -125
54 -125 127 0 30 9 51 36 86 l35 45 -28 144 c-22 107 -33 143 -44 141 -33 -4
-434 -94 -438 -99 -2 -2 4 -65 14 -140 l19 -136 36 -18 c45 -23 68 -49 80 -88
19 -68 -31 -144 -104 -158 -70 -13 -146 51 -146 124 0 40 13 67 51 107 l28 30
-20 130 c-11 71 -22 131 -24 133 -4 5 -475 -85 -482 -91 -2 -2 4 -66 14 -141
l17 -137 43 -26 c69 -40 92 -108 58 -174 -49 -94 -184 -89 -227 8 -25 57 -17
94 32 147 l38 41 -14 115 c-8 63 -17 125 -19 136 -5 21 -6 21 -286 -27 -155
-26 -284 -50 -286 -53 -10 -9 29 -291 40 -298 87 -50 110 -83 104 -146 -11
-110 -150 -155 -221 -72 -49 59 -42 137 18 187 l33 28 -18 143 c-9 79 -19 145
-21 147 -3 4 -540 -76 -546 -81 -4 -2 27 -267 31 -269 85 -50 117 -87 117
-133 0 -130 -173 -180 -240 -69 -35 56 -22 113 37 169 l29 28 -17 131 c-10 72
-19 132 -21 133 -3 2 -181 -21 -427 -55 l-83 -11 6 -57 c27 -234 24 -225 68
-249 87 -51 103 -146 34 -209 -70 -65 -180 -35 -207 56 -15 50 0 96 44 139
l33 32 -18 137 c-10 75 -20 138 -21 140 -5 4 -609 -66 -615 -72 -3 -2 3 -62
11 -132 14 -109 20 -130 38 -143 11 -8 37 -29 57 -47 34 -28 37 -36 36 -80 -1
-118 -132 -174 -213 -92 -56 55 -53 129 6 188 l36 36 -15 128 c-9 70 -18 130
-21 133 -6 6 -516 -41 -521 -48 -2 -2 3 -59 10 -128 7 -69 13 -128 13 -132 1
-4 19 -19 41 -33 69 -44 89 -118 50 -183 -56 -92 -201 -68 -230 38 -13 48 -1
83 47 131 l35 37 -12 128 c-7 71 -14 132 -16 135 -2 4 -14 5 -26 3 -13 -2
-133 -13 -268 -24 -134 -12 -244 -22 -245 -23 0 -1 4 -62 10 -136 l10 -134 37
-23 c51 -33 68 -61 68 -115 0 -120 -147 -170 -225 -78 -20 24 -25 42 -25 81 0
48 3 55 44 94 l44 42 -10 128 c-6 71 -12 131 -14 133 -4 5 -479 -27 -538 -35
l-39 -6 7 -135 7 -136 51 -48 51 -47 -5 -56 c-5 -66 -32 -101 -89 -116 -83
-23 -159 38 -159 128 0 40 5 50 46 91 l47 46 -7 135 c-4 74 -8 135 -9 136 -1
2 -101 -4 -222 -11 -121 -8 -237 -15 -259 -15 l-38 0 7 -152 7 -153 43 -38
c74 -64 81 -139 17 -200 -77 -73 -212 -16 -212 91 0 44 14 70 57 108 l35 31
-1 119 c-1 65 -4 134 -8 153 l-6 34 -156 -7 c-86 -3 -205 -9 -265 -13 l-109
-6 5 -153 5 -153 51 -49 c47 -43 52 -52 52 -91 0 -80 -48 -131 -125 -131 -75
0 -125 51 -125 127 1 46 15 72 59 109 l34 28 -7 155 c-4 86 -8 156 -9 156 -2
1 -529 -23 -539 -24 -10 -1 -10 -70 -1 -218 l6 -112 39 -26 c115 -76 66 -235
-72 -235 -32 0 -48 7 -76 33 -31 28 -37 41 -42 85 -4 51 -4 53 42 98 l46 47 0
126 c0 69 -3 143 -7 164 l-6 39 -201 -6 c-111 -4 -234 -9 -273 -12 l-73 -6 6
-161 c6 -150 8 -163 28 -180 76 -63 94 -98 81 -156 -8 -38 -58 -87 -96 -95
-95 -19 -178 68 -154 161 3 15 25 44 47 65 l40 37 -1 133 c-1 73 -4 148 -8
167 l-6 34 -261 -8 c-143 -4 -261 -8 -261 -8 -1 -1 1 -66 3 -144 l4 -143 35
-21 c97 -60 96 -182 -2 -229 -37 -18 -50 -20 -82 -11 -67 18 -110 84 -98 150
4 23 21 48 51 75 l44 41 -7 143 -6 142 -67 0 c-37 0 -142 -3 -235 -7 l-168 -6
5 -150 c4 -129 7 -151 23 -159 53 -30 78 -64 82 -114 11 -125 -125 -188 -214
-99 -29 29 -33 39 -33 86 0 49 3 55 45 96 51 48 50 44 38 236 l-6 107 -240 0
-239 0 6 -42 c3 -24 17 -135 30 -248 197 -1653 216 -4052 51 -6090 -133 -1625
-368 -2957 -685 -3885 -67 -194 -179 -473 -235 -585 -19 -38 -35 -84 -35 -102
l0 -33 168 -57 c1023 -348 2147 -574 3392 -683 227 -20 561 -41 880 -57 338
-17 1573 -17 1965 0 1014 43 1894 108 3220 237 143 14 265 25 271 25 7 0 53
63 104 140 449 684 800 1519 1039 2475 219 875 342 1785 403 2985 16 321 16
1508 0 1875 -68 1532 -220 2904 -512 4635 -33 195 -63 367 -66 383 -5 24 -9
27 -47 26 -23 -1 -151 -29 -284 -63z"/>
</g>
</svg>
