<svg id='welcome' viewBox="0 0 647 105" fill="none" xmlns="http://www.w3.org/2000/svg">
    <path d="M25.9441 7.64026C26.4635 5.69256 27.7836 4.71871 29.9044 4.71871H33.7998C34.8819 4.71871 35.661 5.12989 36.1371 5.95226C36.6132 6.77462 36.7214 7.74847 36.4617 8.87381L27.3075 44.6466H58.9252L68.339 7.64026C68.8584 5.69256 70.2002 4.71871 72.3643 4.71871H76.1948C77.2768 4.71871 78.0559 5.12989 78.532 5.95226C79.0081 6.77462 79.1163 7.74847 78.8566 8.87381L56.1335 98.0785C55.6141 100.026 54.2723 101 52.1082 101H48.2777C47.1957 101 46.4166 100.611 45.9405 99.8314C45.4644 99.0091 45.3562 98.0352 45.6159 96.9099L56.5879 53.8008H24.9702L13.6736 98.0785C13.1542 100.026 11.8341 101 9.71326 101H5.88278C4.80072 101 4.02164 100.611 3.54554 99.8314C3.06943 99.0091 2.96123 98.0352 3.22092 96.9099L25.9441 7.64026Z" stroke="white" stroke-width="6"/>
    <path d="M108.765 101C108.765 101 98.1392 101 76.8876 101C75.8056 101 75.0265 100.611 74.5504 99.8314C74.0743 99.0091 73.9661 98.0352 74.2258 96.9099L95.3259 13.9378H90.0021C88.6604 13.9378 87.838 13.7431 87.5351 13.3535C87.2321 12.9207 87.2537 11.9468 87.6 10.432L88.444 7.38057C88.747 6.21195 89.1149 5.47615 89.5477 5.17317C89.9805 4.8702 90.8029 4.71871 92.0148 4.71871H135.384C136.639 4.71871 137.439 4.95676 137.786 5.43287C138.175 5.86569 138.219 6.73133 137.916 8.0298L136.942 11.4058C136.552 13.0938 135.448 13.9378 133.631 13.9378H106.168L98.4422 44.257H121.944C122.724 44.257 123.286 44.56 123.632 45.166C123.979 45.7286 124.044 46.4428 123.827 47.3084L122.853 50.6195C122.421 52.4807 121.1 53.4112 118.893 53.4112H96.1049L86.3015 91.8459H111.816C112.595 91.8459 113.158 92.1488 113.504 92.7548C113.851 93.3174 113.916 94.0316 113.699 94.8972L112.79 98.2083C112.357 100.069 111.016 101 108.765 101Z" stroke="white" stroke-width="6" />
    <path d="M165.806 101C165.806 101 153.687 101 129.449 101C128.367 101 127.588 100.611 127.112 99.8314C126.635 99.0091 126.527 98.0352 126.787 96.9099L149.575 7.64026C150.094 5.69256 151.415 4.71871 153.535 4.71871H157.431C158.513 4.71871 159.27 5.12989 159.703 5.95226C160.179 6.77462 160.287 7.74847 160.028 8.87381L138.863 91.8459H168.987C169.809 91.8459 170.394 92.1488 170.74 92.7548C171.086 93.3174 171.151 94.0316 170.935 94.8972L170.026 98.2083C169.593 100.069 168.186 101 165.806 101Z" stroke="white" stroke-width="6" />
    <path d="M216.993 101C216.993 101 204.874 101 180.636 101C179.554 101 178.775 100.611 178.299 99.8314C177.823 99.0091 177.715 98.0352 177.974 96.9099L200.763 7.64026C201.282 5.69256 202.602 4.71871 204.723 4.71871H208.618C209.7 4.71871 210.458 5.12989 210.891 5.95226C211.367 6.77462 211.475 7.74847 211.215 8.87381L190.05 91.8459H220.175C220.997 91.8459 221.581 92.1488 221.928 92.7548C222.274 93.3174 222.339 94.0316 222.122 94.8972L221.213 98.2083C220.781 100.069 219.374 101 216.993 101Z" stroke="white" stroke-width="6" />
    <path d="M243.64 85.0289C245.111 90.0929 247.47 92.6249 250.716 92.6249C255.434 92.6249 259.568 90.3093 263.117 85.6781C267.445 79.6619 271.6 70.1831 275.582 57.2417C279.348 44.9928 280.733 34.7782 279.737 26.5979C279.261 22.8756 278.309 19.9541 276.881 17.8332C275.452 15.6691 273.613 14.5871 271.362 14.5871C266.471 14.5871 262.121 17.0541 258.313 21.9883C253.681 28.1344 249.418 37.9595 245.523 51.4635C241.67 64.9243 241.043 76.1128 243.64 85.0289ZM231.175 72.1741C231.175 60.2282 233.988 47.698 239.615 34.5835C245.804 20.3003 253.292 10.8431 262.078 6.21194C265.281 4.52394 268.57 3.67993 271.946 3.67993C275.322 3.67993 279.153 4.91348 283.438 7.38057C286.251 9.06857 288.177 11.7521 289.216 15.4311C290.255 19.1101 290.774 24.4771 290.774 31.5321C290.774 38.5438 289.216 47.9577 286.1 59.7737C280.646 80.5925 272.206 93.7286 260.78 99.1822C257.404 100.827 253.833 101.649 250.067 101.649C247.081 101.649 243.986 100.805 240.783 99.1173C234.377 95.7412 231.175 86.7602 231.175 72.1741Z" stroke="white" stroke-width="6" />
    <path d="M354.641 4.71871C356.979 4.71871 357.325 6.45 355.68 9.91258C353.256 14.2408 350.854 21.0145 348.474 30.2336C346.093 39.4527 344.427 48.9532 343.475 58.7349C342.522 68.5167 342.76 76.9784 344.189 84.12C350.292 77.4545 356.394 67.6511 362.497 54.7097C368.643 41.725 372.798 29.844 374.962 19.0668L375.222 18.872C375.958 15.0199 376.672 11.9468 377.365 9.65288C378.057 7.35892 378.75 5.97389 379.442 5.49779C380.135 4.9784 381.13 4.71871 382.429 4.71871H387.233C389.31 4.71871 389.873 6.06046 388.921 8.74396C385.458 18.9586 383.143 30.0605 381.974 42.0496C380.849 54.0388 380.632 63.3661 381.325 70.0316C382.061 76.6538 382.861 81.826 383.727 85.5483C387.233 81.6529 390.76 76.5672 394.31 70.2913C397.902 64.0154 401.018 57.1551 403.659 49.7106C409.329 33.9126 412.445 19.9757 413.008 7.89995C413.094 6.47164 413.354 5.58435 413.787 5.23809C414.219 4.89184 414.847 4.71871 415.669 4.71871H420.993C422.465 4.71871 423.374 4.93512 423.72 5.36795C424.109 5.80077 424.218 7.70519 424.044 11.0812C423.915 14.4572 423.157 19.4779 421.772 26.1434C420.43 32.7656 418.483 39.7124 415.929 46.9838C413.375 54.2552 410.411 61.2453 407.035 67.9541C403.659 74.6628 399.655 80.9604 395.024 86.8468C390.436 92.7331 385.61 97.4509 380.546 101H378.988C377.386 101 376.261 100.113 375.612 98.3382C372.322 88.9027 370.829 75.4202 371.132 57.8909C367.929 65.422 363.579 73.1479 358.082 81.0686C352.629 88.9892 347.478 95.633 342.631 101H339.319C337.761 101 336.658 100.113 336.008 98.3382C334.104 92.6249 332.914 85.7431 332.438 77.6926C332.005 69.5988 332.221 61.3968 333.087 53.0866C334.991 34.9514 339.017 19.4563 345.163 6.60149C345.812 5.3463 347.024 4.71871 348.798 4.71871H354.641Z" stroke="white" stroke-width="6"/>
    <path d="M430.53 85.0289C432.002 90.0929 434.361 92.6249 437.607 92.6249C442.325 92.6249 446.458 90.3093 450.007 85.6781C454.336 79.6619 458.491 70.1831 462.473 57.2417C466.238 44.9928 467.623 34.7782 466.628 26.5979C466.152 22.8756 465.2 19.9541 463.771 17.8332C462.343 15.6691 460.503 14.5871 458.253 14.5871C453.362 14.5871 449.012 17.0541 445.203 21.9883C440.572 28.1344 436.309 37.9595 432.413 51.4635C428.561 64.9243 427.934 76.1128 430.53 85.0289ZM418.065 72.1741C418.065 60.2282 420.879 47.698 426.505 34.5835C432.695 20.3003 440.182 10.8431 448.969 6.21194C452.172 4.52394 455.461 3.67993 458.837 3.67993C462.213 3.67993 466.044 4.91348 470.328 7.38057C473.142 9.06857 475.068 11.7521 476.107 15.4311C477.145 19.1101 477.665 24.4771 477.665 31.5321C477.665 38.5438 476.107 47.9577 472.99 59.7737C467.537 80.5925 459.097 93.7286 447.67 99.1822C444.294 100.827 440.723 101.649 436.958 101.649C433.971 101.649 430.877 100.805 427.674 99.1173C421.268 95.7412 418.065 86.7602 418.065 72.1741Z" stroke="white" stroke-width="6" />
    <path d="M497.243 49.7755L505.554 49.386C511.57 49.1263 516.179 46.5294 519.382 41.5952C522.455 36.8774 523.992 30.45 523.992 22.3129C523.992 20.019 523.213 18.0929 521.655 16.5348C520.14 14.9766 518.019 14.1759 515.292 14.1326C512.565 14.0893 509.6 14.046 506.398 14.0027L497.243 49.7755ZM495.555 13.9378C494.17 13.9378 492.829 13.9378 491.53 13.9378C490.232 13.9378 489.323 13.5699 488.803 12.8341C488.284 12.055 488.154 11.1678 488.414 10.1723L489.063 7.38057C489.236 6.60149 489.647 5.97389 490.297 5.49779C490.946 4.9784 491.552 4.71871 492.114 4.71871H514.708C520.811 4.71871 525.701 6.25523 529.38 9.32827C533.059 12.358 534.899 16.8594 534.899 22.8323C534.899 28.8053 533.752 34.4103 531.458 39.6475C529.207 44.8846 526.719 48.6285 523.992 50.8792C521.308 53.0866 519.252 54.5582 517.824 55.294C516.396 55.9865 514.838 56.6141 513.15 57.1768L519.252 96.4554C519.729 99.4852 518.755 101 516.331 101H511.786C510.618 101 509.774 100.654 509.254 99.9613C508.778 99.2688 508.432 98.0569 508.215 96.3256L503.216 58.7999L494.906 58.9297L484.908 98.0785C484.389 100.026 483.068 101 480.948 101H477.117C476.035 101 475.256 100.611 474.78 99.8314C474.304 99.0091 474.196 98.0352 474.455 96.9099L495.555 13.9378Z" stroke="white" stroke-width="6" />
    <path d="M572.915 101C572.915 101 560.796 101 536.558 101C535.476 101 534.697 100.611 534.221 99.8314C533.745 99.0091 533.637 98.0352 533.896 96.9099L556.684 7.64026C557.204 5.69256 558.524 4.71871 560.645 4.71871H564.54C565.622 4.71871 566.38 5.12989 566.812 5.95226C567.289 6.77462 567.397 7.74847 567.137 8.87381L545.972 91.8459H576.096C576.919 91.8459 577.503 92.1488 577.849 92.7548C578.196 93.3174 578.261 94.0316 578.044 94.8972L577.135 98.2083C576.702 100.069 575.296 101 572.915 101Z" stroke="white" stroke-width="6" />
    <path d="M617.416 13.0938C617.416 13.0938 610.685 39.4311 597.224 92.1055C598.004 92.1921 600.038 92.2354 603.327 92.2354C608.911 92.2354 614.083 89.0109 618.844 82.5618C623.605 76.1128 627.435 67.3698 630.335 56.3328C634.361 40.7512 634.642 29.3247 631.179 22.0532C630.703 21.0578 630.097 19.9324 629.362 18.6772C627.197 15.1714 623.215 13.3102 617.416 13.0938ZM606.444 13.4184L599.627 14.1975C597.939 14.1975 597.224 13.1804 597.484 11.1461L598.004 7.38057C598.22 5.99553 598.977 5.15153 600.276 4.84856C603.825 4.15604 608.867 3.80978 615.403 3.80978C624.492 3.80978 631.353 6.25523 635.984 11.1461C640.615 16.037 643.125 23.1137 643.515 32.3761C644.034 45.0145 641.243 58.6267 635.14 73.2129C631.331 82.2588 626.873 89.0974 621.766 93.7286C616.096 98.9225 609.235 101.519 601.185 101.519C596.424 101.519 592.831 101.346 590.408 101C588.027 100.654 586.555 99.9829 585.993 98.9874C585.43 97.9487 585.408 96.4121 585.928 94.3779L606.444 13.4184Z" stroke="white" stroke-width="6" />
</svg>


